<svg style="display: none" xmlns="http://www.w3.org/2000/svg">
    <symbol id="instagram-icon" width="22" height="22" viewBox="0 0 22 22" fill="none">
        <g clip-path="url(#clip0_1_205)">
            <path
                d="M15.125 0H6.875C3.07863 0 0 3.07863 0 6.875V15.125C0 18.9214 3.07863 22 6.875 22H15.125C18.9214 22 22 18.9214 22 15.125V6.875C22 3.07863 18.9214 0 15.125 0ZM19.9375 15.125C19.9375 17.7787 17.7787 19.9375 15.125 19.9375H6.875C4.22125 19.9375 2.0625 17.7787 2.0625 15.125V6.875C2.0625 4.22125 4.22125 2.0625 6.875 2.0625H15.125C17.7787 2.0625 19.9375 4.22125 19.9375 6.875V15.125Z"
                fill="#F13C6E" />
            <path
                d="M11 5.5C7.96262 5.5 5.5 7.96262 5.5 11C5.5 14.0374 7.96262 16.5 11 16.5C14.0374 16.5 16.5 14.0374 16.5 11C16.5 7.96262 14.0374 5.5 11 5.5ZM11 14.4375C9.10525 14.4375 7.5625 12.8948 7.5625 11C7.5625 9.10388 9.10525 7.5625 11 7.5625C12.8948 7.5625 14.4375 9.10388 14.4375 11C14.4375 12.8948 12.8948 14.4375 11 14.4375Z"
                fill="#F13C6E" />
            <path
                d="M16.9125 5.82036C17.3173 5.82036 17.6454 5.49224 17.6454 5.08749C17.6454 4.68273 17.3173 4.35461 16.9125 4.35461C16.5077 4.35461 16.1796 4.68273 16.1796 5.08749C16.1796 5.49224 16.5077 5.82036 16.9125 5.82036Z"
                fill="#F13C6E" />
        </g>
    </symbol>

    <symbol id="youtube-icon" width="23" height="16" viewBox="0 0 23 16" fill="none">
        <g>
            <path
                d="M17.5749 0H4.60688C2.06257 0 0 2.10246 0 4.69598V11.304C0 13.8975 2.06257 16 4.60688 16H17.5749C20.1192 16 22.1818 13.8975 22.1818 11.304V4.69598C22.1818 2.10246 20.1192 0 17.5749 0ZM14.4593 8.3215L8.39375 11.2704C8.23213 11.3489 8.04544 11.2288 8.04544 11.0463V4.96427C8.04544 4.77916 8.23704 4.6592 8.399 4.74287L14.4646 7.87606C14.6449 7.9692 14.6418 8.23283 14.4593 8.3215Z"
                fill="#F13C6E" />
        </g>
    </symbol>

    <symbol id="facebook-icon" width="20" height="20" viewBox="0 0 20 20" fill="none">
        <g>
            <path
                d="M14.9993 0.00416134L12.4058 0C9.49206 0 7.60908 1.9319 7.60908 4.92203V7.19141H5.0014C4.77607 7.19141 4.5936 7.37409 4.5936 7.59943V10.8875C4.5936 11.1128 4.77628 11.2953 5.0014 11.2953H7.60908V19.5922C7.60908 19.8175 7.79155 20 8.01688 20H11.4192C11.6445 20 11.827 19.8173 11.827 19.5922V11.2953H14.8759C15.1013 11.2953 15.2837 11.1128 15.2837 10.8875L15.285 7.59943C15.285 7.49123 15.2419 7.38762 15.1656 7.31105C15.0892 7.23448 14.9852 7.19141 14.877 7.19141H11.827V5.26763C11.827 4.34298 12.0473 3.87358 13.2518 3.87358L14.9989 3.87295C15.224 3.87295 15.4065 3.69027 15.4065 3.46514V0.411972C15.4065 0.187052 15.2242 0.00457747 14.9993 0.00416134Z"
                fill="#F13C6E" />
        </g>
    </symbol>
</svg>